HIERARCHY
ROOT Hips
{
  OFFSET 13.6774 106.653 -34.4427
  CHANNELS 6 Xposition Yposition Zposition Zrotation Xrotation Yrotation
  JOINT ToSpine
  {
    OFFSET -2.69724 7.43032 -0.144315
    CHANNELS 3 Zrotation Xrotation Yrotation
    JOINT Spine
    {
      OFFSET -0.0310711 10.7595 1.96963
      CHANNELS 3 Zrotation Xrotation Yrotation
      JOINT Spine1
      {
        OFFSET 19.9056 3.91189 0.764692
        CHANNELS 3 Zrotation Xrotation Yrotation
        JOINT Neck
        {
          OFFSET 25.9749 7.03908 -0.130764
          CHANNELS 3 Zrotation Xrotation Yrotation
          JOINT Head
          {
            OFFSET 9.52751 0.295786 -0.907742
            CHANNELS 3 Zrotation Xrotation Yrotation
            End Site
            {
              OFFSET 16.4037 0.713936 2.7358
            }
          }
        }
        JOINT LeftShoulder
        {
          OFFSET 17.7449 4.33886 11.7777
          CHANNELS 3 Zrotation Xrotation Yrotation
          JOINT LeftArm
          {
            OFFSET 0.911315 1.27913 9.80584
            CHANNELS 3 Zrotation Xrotation Yrotation
            JOINT LeftForeArm
            {
              OFFSET 28.6126 1.18197 -3.53199
              CHANNELS 3 Zrotation Xrotation Yrotation
              JOINT LeftHand
              {
                OFFSET 27.5088 0.0218783 0.327423
                CHANNELS 3 Zrotation Xrotation Yrotation
                End Site
                {
                  OFFSET 18.6038 -0.000155887 0.382096
                }
              }
            }
          }
        }
        JOINT RightShoulder
        {
          OFFSET 17.1009 2.89543 -12.2328
          CHANNELS 3 Zrotation Xrotation Yrotation
          JOINT RightArm
          {
            OFFSET 1.4228 0.178766 -10.211
            CHANNELS 3 Zrotation Xrotation Yrotation
            JOINT RightForeArm
            {
              OFFSET 28.733 1.87905 2.64907
              CHANNELS 3 Zrotation Xrotation Yrotation
              JOINT RightHand
              {
                OFFSET 27.4588 0.290562 -0.101845
                CHANNELS 3 Zrotation Xrotation Yrotation
                End Site
                {
                  OFFSET 17.8396 -0.255518 -0.000602873
                }
              }
            }
          }
        }
      }
    }
  }
  JOINT LeftUpLeg
  {
    OFFSET -5.61296 -2.22332 -10.2353
    CHANNELS 3 Zrotation Xrotation Yrotation
    JOINT LeftLeg
    {
      OFFSET 2.56703 -44.7417 -7.93097
      CHANNELS 3 Zrotation Xrotation Yrotation
      JOINT LeftFoot
      {
        OFFSET 3.16933 -46.5642 -3.96578
        CHANNELS 3 Zrotation Xrotation Yrotation
        JOINT LeftToeBase
        {
          OFFSET 0.346054 -6.02161 12.8035
          CHANNELS 3 Zrotation Xrotation Yrotation
          End Site
          {
            OFFSET 0.134235 -1.35082 5.13018
          }
        }
      }
    }
  }
  JOINT RightUpLeg
  {
    OFFSET -5.7928 -1.72406 10.6446
    CHANNELS 3 Zrotation Xrotation Yrotation
    JOINT RightLeg
    {
      OFFSET -2.57161 -44.7178 -7.85259
      CHANNELS 3 Zrotation Xrotation Yrotation
      JOINT RightFoot
      {
        OFFSET -3.10148 -46.5936 -4.03391
        CHANNELS 3 Zrotation Xrotation Yrotation
        JOINT RightToeBase
        {
          OFFSET -0.0828122 -6.13587 12.8035
          CHANNELS 3 Zrotation Xrotation Yrotation
          End Site
          {
            OFFSET -0.131328 -1.35082 5.13018
          }
        }
      }
    }
  }
}
MOTION
Frames: 21
Frame Time: 0.03333333333333333
0.0000 93.1000 0.0000 75.0186 4.4237 -1.0811 -70.9793 1.3023 87.8497 105.5554 72.3266 -16.7487 0.8343 24.7581 -2.9640 -124.1342 27.8855 164.0094 171.1710 68.6162 -136.9290 1.9079 -9.3737 -19.0327 -75.9360 32.7543 -142.0653 0.0936 -0.2824 -113.0490 0.7529 -0.4922 6.8228 -0.0013 9.9997 19.7900 -67.9370 -48.0675 110.6707 -10.3716 -5.4352 116.0953 -0.4400 -0.5188 0.2676 -46.1195 17.2294 88.1033 -3.0510 30.0129 -18.9599 -9.0573 1.2421 0.3768 4.3014 -11.5072 6.6038 -39.0488 -19.6859 72.7153 3.4979 58.9040 0.3993 -4.2397 -27.3133 2.4123 1.5799 -22.7394 -22.4033 
0.0000 93.1000 0.0000 74.8090 3.7143 -1.0758 -71.0591 0.9787 87.6785 105.5564 71.2544 -18.4428 0.4713 23.5621 -2.6450 -121.9502 26.8794 165.5395 173.1417 68.0348 -137.6748 1.4947 -10.0485 -19.9752 -74.8239 32.4172 -141.3936 2.1159 -1.1027 -112.8587 1.2726 -0.3775 6.2779 0.0500 9.7987 14.8519 -76.0313 -48.9412 104.4493 -7.7844 -5.1107 119.0757 -0.4695 -0.5755 0.4482 -46.0679 17.1714 88.0572 -1.5805 29.8550 -20.2734 -8.2913 -0.3461 -0.0643 5.2420 -12.7149 9.1856 -38.1648 -19.2759 73.9581 4.7075 60.6732 -0.8225 -4.7443 -28.1753 2.2317 1.0968 -23.2252 -23.8096 
0.0000 93.1000 0.0000 75.1126 3.1858 -0.6198 -71.1083 1.0662 87.6236 103.6112 70.4084 -15.9843 1.3488 22.1304 -2.6589 -120.4565 26.0439 164.4884 175.1884 67.6790 -138.6938 1.4949 -11.0537 -21.6910 -72.6601 32.4682 -142.1094 3.2316 -2.2420 -112.0461 1.1391 -0.5323 6.3793 0.2264 8.6840 10.1874 -83.8917 -50.3439 100.3452 -5.5056 -4.1759 121.8698 -0.5715 -0.2427 0.3214 -47.0025 16.9483 88.1291 -2.0738 28.6537 -22.8037 -7.6999 -1.3878 -0.0904 6.5915 -15.7743 12.1105 -36.8442 -18.9349 74.9670 4.8313 60.8433 -0.8743 -5.0152 -28.1111 2.0908 1.4378 -23.1267 -24.4104 
0.0000 93.1000 0.0000 74.3752 0.7269 -1.8624 -71.2790 1.4487 87.9249 103.5664 69.6018 -15.9601 1.3757 20.8474 -1.7850 -118.4790 24.9839 161.4741 179.2112 67.7125 -142.1929 1.6155 -12.5076 -22.6538 -70.9267 32.9627 -143.2253 4.0298 -2.5425 -110.9834 0.1747 -0.3032 7.0945 0.7122 7.0024 8.7412 -89.8144 -48.9748 97.5506 -2.0332 -2.6382 125.6380 -0.1523 -0.3470 0.5735 -47.2331 16.9901 89.9912 -1.0679 27.8834 -23.6657 -6.7682 -2.7768 -0.6153 7.2520 -17.2112 13.0048 -34.9642 -17.6120 76.0746 4.8995 60.0542 -1.0271 -4.7561 -27.4132 2.3773 0.7773 -24.0193 -25.2788 
0.0000 93.1000 0.0000 73.8014 -1.6825 -3.0391 -71.1624 -0.5396 87.7190 101.6096 69.0826 -14.7139 0.2464 20.8363 -1.7165 -118.6881 24.4722 159.9526 179.1078 67.3239 -144.4416 -0.7740 -13.0103 -22.8951 -69.5196 33.7517 -144.3008 5.7980 -2.8009 -110.0762 -0.3725 2.4450 6.9849 1.4105 6.0916 7.4562 -93.8389 -49.9201 97.8377 1.7330 0.1188 128.0969 1.1131 -3.5733 1.5312 -47.6246 17.0126 90.9213 -1.5613 28.3472 -23.1476 -6.7930 -3.0440 -2.7442 6.7037 -17.5274 13.5378 -32.9474 -16.6862 77.6813 3.5129 58.7851 -1.5041 -5.5361 -25.6891 2.9653 2.1728 -24.1743 -25.4196 
0.0000 93.1000 0.0000 73.5192 -3.1754 -4.1033 -70.8418 0.4185 87.8590 98.6050 69.0127 -12.9981 0.8920 19.8167 -1.5233 -118.8471 24.7930 160.5000 -176.8035 67.5176 -146.6980 0.5280 -13.6634 -23.3510 -67.4636 35.0962 -144.8233 6.6128 -3.3605 -108.7503 0.3479 -0.0465 5.6216 0.3969 6.7091 6.3300 -95.6557 -51.2050 98.5760 2.2143 2.6241 130.3104 0.2330 -0.4481 0.7235 -48.2897 16.2795 90.7819 -1.7703 28.7877 -21.1960 -5.2317 -2.9594 -0.6126 6.0605 -15.6076 13.8660 -32.3675 -15.7835 80.8634 3.6895 56.7015 -1.5432 -6.1965 -25.1581 2.0866 0.9829 -24.5567 -26.3595 
0.0000 93.1000 0.0000 71.9812 -6.1124 -5.4039 -70.9559 0.5263 87.9699 97.0216 68.4541 -11.2864 1.1538 18.7836 -0.9559 -117.6392 24.9758 160.3230 -179.5236 68.9144 -145.0893 0.3141 -14.2162 -23.5391 -67.4768 35.2075 -145.8178 6.8996 -2.2938 -107.5558 0.2308 0.2738 5.5190 0.6347 6.3842 6.6129 -97.9646 -51.7022 98.5045 5.0339 4.3495 130.6377 0.7076 -0.6919 1.4167 -47.7765 15.9980 89.6568 -1.4942 29.6088 -17.6755 -4.5484 -1.1696 -1.0981 4.7695 -13.8087 11.4440 -30.9155 -14.2771 82.9120 2.8217 55.4357 0.4034 -5.9023 -23.6216 2.5017 2.2414 -25.1958 -26.4449 
0.0000 93.1000 0.0000 72.2813 -8.9519 -5.9506 -70.9200 1.2137 88.0948 93.7167 67.9151 -9.1952 1.4900 18.2161 -1.2801 -116.9809 25.7105 159.7184 -179.7048 69.3516 -143.6769 0.7612 -14.6330 -22.8982 -66.5720 36.1422 -146.8889 9.0650 -3.3589 -107.2571 -0.0504 -0.1601 5.4100 0.7967 6.4677 6.8459 -100.6719 -53.1432 95.7942 6.9459 4.8435 130.8729 0.5707 -0.0618 2.2457 -49.7139 16.7728 91.5265 -2.0991 28.1188 -15.2758 -3.9079 -0.0320 -1.0230 3.5552 -10.8506 8.6460 -30.9705 -12.0859 85.6260 2.5704 52.1751 0.9384 -5.2465 -23.0290 2.7103 2.2819 -25.9919 -26.8266 
0.0000 93.1000 0.0000 71.3782 -11.8512 -6.0093 -70.9462 3.4497 88.0220 92.8890 67.3177 -6.9871 3.6930 18.0382 -0.6182 -116.0545 26.1123 158.7498 -179.6013 69.8273 -143.9704 3.1217 -15.4000 -22.0876 -67.8552 35.8699 -146.9559 9.7001 -4.1060 -106.9262 0.2636 -3.2534 4.5372 0.0275 6.7885 6.2788 -101.4939 -55.0421 94.6308 7.5402 6.1557 130.6298 -0.4000 3.6921 1.3636 -51.1035 18.4892 92.6638 -0.8956 28.0617 -12.5728 -3.0647 -0.8569 1.0676 3.0713 -9.1738 9.3135 -31.2435 -11.0814 87.1805 3.0857 49.3008 2.0734 -3.7614 -23.3116 2.1310 1.1380 -25.5795 -26.5192 
0.0000 93.1000 0.0000 69.9018 -14.5101 -6.3177 -70.8359 1.4426 87.8148 89.9636 66.8132 -4.2912 2.9149 16.6655 -0.3515 -116.8778 26.8933 159.2599 176.6026 69.8908 -142.1942 0.9755 -14.6217 -22.2101 -66.9134 35.9920 -148.6852 9.8784 -4.1348 -106.4555 0.0497 -0.7288 4.9170 0.1713 5.7379 5.6480 -103.6423 -55.0066 94.0834 8.2093 7.6272 131.3415 0.5634 0.7078 2.4659 -52.1015 17.9850 92.9983 -1.5371 28.6636 -9.2753 -2.3467 -1.3268 -0.9089 2.4084 -8.6781 7.0746 -32.4529 -11.0295 87.4497 2.0542 45.8113 0.9580 -3.0757 -23.2721 2.1982 0.5497 -28.8500 -21.5344 
0.0000 93.1000 0.0000 69.6848 -17.1592 -6.4346 -70.7634 1.3208 87.7418 89.0017 66.0637 -2.5705 3.6206 16.3573 0.5900 -117.8180 26.9071 159.1987 176.9740 69.9332 -142.0565 0.9883 -14.1909 -21.3140 -66.0595 36.3093 -149.8599 9.3667 -3.7994 -105.8119 0.5857 -0.8223 4.4374 -0.0191 5.9332 6.1044 -104.9084 -56.0313 93.0960 9.2864 8.4700 130.9240 0.5464 0.8312 2.4335 -53.6802 17.8498 93.1752 -2.2474 29.2374 -10.9334 -3.1585 -2.3429 -0.7551 3.2994 -10.4453 8.8365 -32.2343 -10.2038 87.6646 2.3625 44.0215 1.7820 -3.1905 -21.9632 2.0346 1.0317 -28.1775 -20.2653 
0.0000 93.1000 0.0000 69.8667 -19.9082 -7.4186 -70.8276 1.1214 87.6684 86.6301 65.8937 0.0996 4.2605 15.8840 0.6268 -118.8460 27.2866 158.1114 177.7270 70.8034 -143.7034 1.0091 -14.3080 -20.8940 -65.8163 35.5820 -150.9860 9.7316 -3.5751 -105.8246 0.7626 -1.0719 4.1973 -0.3097 6.1276 5.6728 -104.5931 -56.4245 91.4675 7.8136 8.1469 131.6523 0.5478 1.1772 2.5347 -54.9067 18.0984 93.4978 -1.3385 28.5975 -10.2081 -5.5004 -4.1846 -0.1210 4.0233 -10.3363 5.8951 -31.8416 -10.3567 88.6681 1.9045 41.5932 2.9183 -3.1543 -22.4872 1.6343 0.7954 -26.3453 -19.8121 
0.0000 93.1000 0.0000 69.9025 -22.6088 -8.2020 -70.6790 -1.6127 87.6439 85.9050 66.0526 -0.4603 3.1469 16.0807 -0.0290 -118.7435 26.8422 157.9157 178.8127 70.5708 -145.0819 -1.7459 -13.6444 -20.9774 -65.1408 36.1480 -151.1375 9.7345 -4.2908 -105.5773 -0.2443 2.3369 5.0052 0.1752 5.6887 6.4208 -105.1780 -57.5290 90.7083 8.5936 7.6856 132.1143 1.7179 -2.8359 4.0850 -57.3623 17.6165 97.0723 -0.8513 26.7806 -12.3043 -6.3054 -4.8767 -2.2580 5.2774 -15.0738 8.5492 -32.7284 -9.8472 89.9509 2.4476 39.3403 4.4441 -2.7415 -21.5387 1.3708 2.0276 -25.8228 -19.6293 
0.0000 93.1000 0.0000 68.5922 -24.8698 -8.4361 -70.8425 1.0300 87.8037 84.8274 66.6452 0.8221 4.8306 15.9329 1.1147 -119.9596 27.0947 159.0226 -179.4415 71.1955 -147.1582 0.6530 -14.3515 -20.9046 -65.9081 35.9354 -150.0380 9.8786 -4.1438 -106.2710 0.0008 0.0263 4.4779 0.5822 5.7737 5.7688 -104.7708 -58.3574 91.0085 8.9674 7.7378 131.8282 1.2772 0.1189 4.5970 -58.2635 17.1553 99.2994 -1.8336 28.3188 -12.7359 -6.0233 -6.6165 -1.5064 6.8110 -16.6032 12.3300 -32.5896 -9.3677 92.1932 1.4699 35.7704 5.4858 -0.5760 -22.1989 1.7930 1.0987 -26.0088 -21.9635 
0.0000 93.1000 0.0000 68.7389 -26.0792 -8.3270 -70.9119 0.4143 87.9056 85.8407 66.2284 0.5095 4.6694 15.8059 0.3286 -118.7123 26.6077 158.0473 -178.3732 70.7928 -149.4062 0.3620 -14.1129 -20.9831 -65.4142 36.0130 -150.0586 10.2769 -4.1277 -106.6805 -1.0504 0.3301 5.2101 0.2874 6.1424 7.0303 -105.5754 -57.6892 89.4066 8.3112 7.6555 130.7349 1.1070 -0.2345 4.3284 -58.2144 16.2094 98.6415 -1.8348 29.0840 -11.2162 -5.0023 -9.0500 -1.7826 7.8953 -17.8195 12.6541 -32.9582 -9.4632 91.6391 0.2792 33.3195 4.8404 -0.7935 -20.4885 1.3742 1.2107 -26.1625 -19.1648 
0.0000 93.1000 0.0000 69.0384 -27.0995 -8.6252 -70.7827 0.4183 87.9895 83.8078 66.7666 0.9038 4.7553 16.0416 1.4819 -118.0500 26.0119 155.3391 -169.7778 71.4862 -155.1482 0.4336 -14.6732 -20.8679 -63.9855 36.0935 -150.8475 10.8405 -3.5204 -105.6820 -0.8590 0.0765 4.9759 0.1054 5.9730 8.8617 -107.5278 -56.6772 88.7462 8.1020 7.2956 130.7705 0.6723 -0.0493 3.5104 -57.0973 14.5639 97.9026 -2.4888 31.3063 -9.0850 -3.5714 -11.5020 -2.0824 8.1634 -18.6636 13.8512 -32.9063 -10.9073 89.7391 -0.6500 30.1214 6.7031 -1.0464 -15.0005 1.2197 2.2963 -23.6811 -17.3648 
0.0000 93.1000 0.0000 69.0198 -28.4441 -8.8727 -70.6881 0.8674 88.0235 85.0588 67.3189 -0.2163 5.0141 16.1664 1.4884 -119.7812 26.9277 155.9338 -171.7357 71.7054 -155.1280 0.9258 -15.2611 -21.3288 -63.9152 36.0141 -149.8132 10.2774 -4.0458 -106.7512 -0.7449 -0.6712 4.6992 -0.1722 5.5629 9.2185 -107.6164 -57.7753 87.9661 9.1550 7.8884 131.0121 0.2243 0.8026 2.9566 -55.1150 13.7948 98.6826 -2.8900 33.1721 -8.7509 -3.4667 -13.7080 -1.6897 8.4904 -19.1462 14.9009 -33.7479 -13.0650 85.0447 -1.8496 25.4201 12.0059 -2.2361 -4.4350 0.7211 2.3362 -22.3299 -17.2290 
0.0000 93.1000 0.0000 69.0689 -30.1171 -9.5858 -70.7548 0.4036 88.0062 86.6402 67.8657 -2.3050 4.4003 17.0473 2.1642 -118.9710 26.6446 155.9322 -172.0786 72.0065 -153.2718 0.5347 -16.0108 -21.8552 -63.7866 35.9976 -149.0370 9.2218 -3.5911 -106.7284 -0.8162 -0.3718 5.7096 -0.4121 5.8930 10.0102 -109.7655 -56.8690 85.6788 8.7832 7.7192 130.5864 -0.1861 0.4009 2.3170 -54.1222 12.9990 99.7524 -3.0377 35.8646 -9.1483 -3.7859 -16.4204 -1.6635 8.0410 -18.3403 15.7853 -32.6341 -14.0565 83.8908 -0.6272 23.5989 12.8222 -2.8661 2.4752 -0.0272 1.7852 -16.2946 -20.0760 
0.0000 93.1000 0.0000 69.1280 -32.2469 -9.7807 -70.8857 1.2651 87.9562 87.8095 68.8106 -4.8342 4.4028 17.8648 2.2451 -117.7888 26.1819 153.9880 -169.1331 72.0842 -156.3491 1.1625 -15.6328 -22.0234 -63.4978 35.7546 -148.9544 8.5446 -3.2728 -106.8631 -0.4280 -0.8166 5.4457 -0.1452 5.5617 12.8367 -110.5259 -55.2737 84.7721 7.3384 6.7531 130.8508 -0.1217 0.7885 1.2479 -53.2177 12.7823 100.8019 -2.5927 38.0204 -7.7386 -2.9327 -17.0923 -1.9739 7.2070 -16.8419 16.0573 -31.7415 -14.2132 83.9550 0.4167 27.3063 6.7442 -4.7377 6.2047 0.8889 1.6716 -10.9857 -14.1860 
0.0000 93.1000 0.0000 70.1367 -33.3298 -10.8039 -70.8982 1.0430 87.8759 90.5738 68.6936 -6.6547 4.3067 18.1266 1.1598 -117.9427 25.9416 154.9783 -171.9828 71.5397 -153.6827 1.0775 -15.3120 -20.8258 -64.2169 36.2535 -147.8853 8.7130 -2.8590 -107.0840 -0.2590 -0.7208 5.6075 -0.3523 5.7915 14.2426 -110.6635 -55.0111 83.5691 7.6451 6.6984 130.7704 -0.2695 0.6798 0.9036 -53.3042 12.0986 100.9299 -2.8219 38.8049 -7.9877 -2.2768 -16.9842 -1.9869 7.0607 -16.7709 17.1036 -29.1337 -15.1236 83.9761 1.3854 33.2108 -0.2773 -5.4812 7.4947 0.9448 1.1712 -7.3954 -4.6884 
0.0000 93.1000 0.0000 70.2359 -34.3093 -9.8292 -70.7761 0.9051 87.8485 92.7894 69.0486 -7.8236 4.2155 18.5956 1.1120 -118.0670 26.1870 155.6192 -172.6368 71.7635 -151.2567 0.9733 -15.0741 -20.7207 -63.9479 36.0884 -147.8201 8.6997 -3.2331 -106.7475 -0.6536 -0.7326 5.5114 -0.6123 5.8056 15.0573 -111.3999 -54.8892 82.6851 8.0963 6.7241 130.5597 -0.1834 0.7724 0.9787 -53.2782 12.0139 100.9925 -3.3093 39.9428 -7.1408 -1.6177 -17.4137 -1.9813 6.1396 -15.1170 16.9355 -27.8852 -15.8069 83.8347 1.1485 40.1219 -0.1384 -4.4100 7.2329 0.8192 1.3280 -8.2786 -0.8776 
